<svg width="1425" height="407" viewBox="0 0 1425 407" fill="none" xmlns="http://www.w3.org/2000/svg">
<path d="M98 -22L3 430" stroke="#FF0000" stroke-width="65"/>
<path d="M224 -22L129 430" stroke="#DBC11C" stroke-width="65"/>
<path d="M350 -22L255 430" stroke="#DBC11C" stroke-width="65"/>
<path d="M476 -22L381 430" stroke="#FF0000" stroke-width="65"/>
<path d="M596 -22L501 430" stroke="#FF0000" stroke-width="65"/>
<path d="M716 -22L621 430" stroke="#FF0000" stroke-width="65"/>
<path d="M842 -22L747 430" stroke="#FF0000" stroke-width="65"/>
<path d="M968 -22L873 430" stroke="#DBC11C" stroke-width="65"/>
<path d="M1094 -22L999 430" stroke="#FF0000" stroke-width="65"/>
<path d="M1214 -22L1119 430" stroke="#DBC11C" stroke-width="65"/>
<path d="M716 -22L621 430" stroke="#DBC11C" stroke-width="65"/>
<path d="M842 -22L747 430" stroke="#DBC11C" stroke-width="65"/>
<path d="M968 -22L873 430" stroke="#FF0000" stroke-width="65"/>
<path d="M1094 -22L999 430" stroke="#FF0000" stroke-width="65"/>
<path d="M1214 -22L1119 430" stroke="#DBC11C" stroke-width="65"/>
<path d="M1315 -22L1220 430" stroke="#DBC11C" stroke-width="65"/>
<path d="M1441 -22L1346 430" stroke="#FF0000" stroke-width="65"/>
</svg>
