<svg width="351" height="337" viewBox="0 0 351 337" fill="none" xmlns="http://www.w3.org/2000/svg">
<rect x="10.5" y="10.5" width="329.949" height="231.933" stroke="#FF0000" stroke-width="21"/>
<rect x="97.3954" y="43.2817" width="149.001" height="98.0092" stroke="#FF0000" stroke-width="10"/>
<path d="M83.7989 193.801C86.8758 238.534 95.1251 264.408 117.819 313.432C162.572 341.162 187.663 342.91 232.415 313.432C252.986 270.852 267.475 241.25 265.074 197.5" stroke="white" stroke-width="3"/>
<path d="M175.474 162.463C200.784 162.463 223.592 166.034 239.984 171.734C248.192 174.589 254.655 177.931 259.018 181.518C263.397 185.119 265.366 188.705 265.366 192.092C265.366 195.479 263.398 199.066 259.018 202.667C254.655 206.254 248.192 209.596 239.984 212.45C223.592 218.151 200.784 221.722 175.474 221.722C150.163 221.722 127.355 218.151 110.963 212.45C102.755 209.596 96.2922 206.254 91.9297 202.667C87.5499 199.066 85.5811 195.479 85.5811 192.092C85.5813 188.705 87.5501 185.119 91.9297 181.518C96.2922 177.931 102.755 174.589 110.963 171.734C127.355 166.034 150.163 162.463 175.474 162.463Z" stroke="white" stroke-width="5"/>
<path d="M110.711 213.284C108.072 253.057 109.794 275.188 118.897 314.457" stroke="white" stroke-width="3"/>
<path d="M238.809 213.284C241.448 253.057 239.726 275.188 230.623 314.457" stroke="white" stroke-width="3"/>
<path d="M132.505 219.436V320.61" stroke="white" stroke-width="3"/>
<path d="M174.398 224.222V334.282" stroke="white" stroke-width="3"/>
<path d="M209.498 220.462V326.42" stroke="white" stroke-width="3"/>
</svg>
