<svg width="16" height="16" viewBox="0 0 16 16" fill="none" xmlns="http://www.w3.org/2000/svg">
<rect width="16" height="16" fill="#C71717"/>
<path d="M12.407 8.63802C8.67456 8.24101 4.95474 7.79136 4.00077 7.78208C3.04681 7.7728 3.63726 7.74507 3.27374 7.70805C2.91023 7.67104 3.38741 6.36779 3.38741 6.36779L4.00352 3.42645L6.14175 2.53266C8.56732 5.3012 10.1501 6.36005 13.3386 7.38105C13.7209 8.281 13.771 8.69552 12.407 8.63802Z" fill="#070606" stroke="black"/>
<path d="M6.85609 3.29639C6.98553 2.67463 6.53398 2.77033 6.14172 2.53271" stroke="black"/>
<path d="M3.97621 3.86215C3.81586 3.78255 3.30081 3.49514 4.01056 3.45716" stroke="black"/>
<path d="M12.48 11.9129C12.4679 11.9129 12.4619 11.9047 12.4619 11.8881L12.4664 8.48417C12.4664 8.47096 12.4725 8.46436 12.4845 8.46436H13.9361C13.9481 8.46436 13.9542 8.47261 13.9542 8.48913V9.04407C13.9542 9.05728 13.9481 9.06389 13.9361 9.06389H13.0091V9.83685H13.9361C13.9481 9.83685 13.9542 9.84345 13.9542 9.85667L13.9587 10.4166C13.9587 10.4298 13.9527 10.4364 13.9406 10.4364H13.0091V11.3035H13.9406C13.9527 11.3035 13.9587 11.3117 13.9587 11.3283V11.8931C13.9587 11.9063 13.9527 11.9129 13.9406 11.9129H12.48Z" fill="black"/>
<path d="M10.405 11.9129C10.3808 11.9129 10.3688 11.9014 10.3688 11.8782L10.3643 8.50399C10.3643 8.47757 10.3763 8.46436 10.4004 8.46436H10.8074L11.5716 10.4166L11.549 8.50399C11.549 8.47757 11.5626 8.46436 11.5897 8.46436H12.0374C12.0555 8.46436 12.0645 8.47757 12.0645 8.50399L12.0691 11.8832C12.0691 11.903 12.0615 11.9129 12.0464 11.9129H11.6485L10.8662 10.0895L10.8979 11.8733C10.8979 11.8997 10.8843 11.9129 10.8572 11.9129H10.405Z" fill="black"/>
<path d="M9.43741 11.9129C9.42233 11.9129 9.41479 11.9047 9.41479 11.8881L9.41932 8.48417C9.41932 8.47096 9.42535 8.46436 9.43741 8.46436H9.94387C9.95593 8.46436 9.96196 8.47096 9.96196 8.48417L9.96648 11.8881C9.96648 11.9047 9.96045 11.9129 9.94839 11.9129H9.43741Z" fill="black"/>
<path d="M7.42032 11.7066C7.40524 11.7066 7.39771 11.6984 7.39771 11.6819L7.40223 11.1418L8.51012 8.82291H7.46101C7.44895 8.82291 7.44293 8.8163 7.44293 8.80309V8.28283C7.44293 8.26631 7.44895 8.25806 7.46101 8.25806H9.09798C9.11305 8.25806 9.12059 8.26631 9.12059 8.28283V8.81795L8.01722 11.1269H9.10702C9.11908 11.1269 9.12511 11.1352 9.12511 11.1517L9.12963 11.6819C9.12963 11.6984 9.1221 11.7066 9.10702 11.7066H7.42032Z" fill="black"/>
<path d="M5.48552 11.5001C5.4614 11.5001 5.44935 11.4885 5.44935 11.4654L5.44482 8.09115C5.44482 8.06473 5.45688 8.05151 5.481 8.05151H5.88798L6.6522 10.0037L6.62959 8.09115C6.62959 8.06473 6.64315 8.05151 6.67029 8.05151H7.11796C7.13605 8.05151 7.1451 8.06473 7.1451 8.09115L7.14962 11.4704C7.14962 11.4902 7.14208 11.5001 7.12701 11.5001H6.72907L5.94677 9.6767L5.97842 11.4604C5.97842 11.4869 5.96485 11.5001 5.93772 11.5001H5.48552Z" fill="black"/>
<path d="M3.39148 11.269L3.95221 7.86503C3.95522 7.85182 3.96276 7.84521 3.97482 7.84521H4.63051C4.64257 7.84521 4.6501 7.85182 4.65312 7.86503L5.19124 11.269C5.19425 11.2855 5.18822 11.2938 5.17315 11.2938H4.67121C4.65915 11.2938 4.65161 11.2855 4.6486 11.269L4.59885 10.9073H3.98386L3.93412 11.269C3.93111 11.2855 3.92357 11.2938 3.91151 11.2938H3.40957C3.39751 11.2938 3.39148 11.2855 3.39148 11.269ZM4.0743 10.3771H4.50841L4.32301 8.98483L4.29588 8.8015L4.27779 8.98483L4.0743 10.3771Z" fill="black"/>
<path d="M1.89932 10.8807C1.88425 10.8807 1.87671 10.8724 1.87671 10.8559L1.88575 7.45195C1.88575 7.43874 1.89178 7.43213 1.90384 7.43213H3.35088C3.36595 7.43213 3.37349 7.43874 3.37349 7.45195V8.01184C3.37349 8.02506 3.36746 8.03166 3.3554 8.03166H2.42839V8.79966H3.3554C3.36746 8.79966 3.37349 8.80792 3.37349 8.82444L3.37801 9.38434C3.37801 9.39755 3.37048 9.40415 3.3554 9.40415H2.42839V10.8559C2.42839 10.8724 2.42086 10.8807 2.40578 10.8807H1.89932Z" fill="black"/>
</svg>
