<svg width="233" height="167" viewBox="0 0 233 167" fill="none" xmlns="http://www.w3.org/2000/svg">
<path d="M202.649 111.825C130.821 104.852 59.2357 96.9548 40.8773 96.7918C22.519 96.6288 33.8818 96.1417 26.8862 95.4916C19.8906 94.8416 29.0737 71.9525 29.0737 71.9525L40.9302 20.2934L82.0787 4.59569C128.757 53.2198 159.217 71.8166 220.577 89.7484C227.933 105.554 228.897 112.835 202.649 111.825Z" fill="#FF0000"/>
<path d="M204.052 166.345C203.82 166.345 203.704 166.2 203.704 165.91L203.791 106.126C203.791 105.894 203.907 105.778 204.139 105.778H232.073C232.305 105.778 232.421 105.923 232.421 106.213V115.959C232.421 116.191 232.305 116.307 232.073 116.307H214.234V129.883H232.073C232.305 129.883 232.421 129.999 232.421 130.231L232.509 140.065C232.509 140.297 232.392 140.413 232.16 140.413H214.234V155.642H232.16C232.392 155.642 232.509 155.787 232.509 156.077V165.997C232.509 166.229 232.392 166.345 232.16 166.345H204.052Z" fill="#FF0000"/>
<path d="M164.12 166.345C163.656 166.345 163.423 166.142 163.423 165.736L163.336 106.474C163.336 106.01 163.568 105.778 164.033 105.778H171.865L186.571 140.065L186.136 106.474C186.136 106.01 186.397 105.778 186.92 105.778H195.535C195.883 105.778 196.057 106.01 196.057 106.474L196.144 165.823C196.144 166.171 195.999 166.345 195.709 166.345H188.051L172.996 134.321L173.605 165.649C173.605 166.113 173.344 166.345 172.822 166.345H164.12Z" fill="#FF0000"/>
<path d="M145.501 166.345C145.21 166.345 145.065 166.2 145.065 165.91L145.152 106.126C145.152 105.894 145.268 105.778 145.501 105.778H155.247C155.479 105.778 155.595 105.894 155.595 106.126L155.682 165.91C155.682 166.2 155.566 166.345 155.334 166.345H145.501Z" fill="#FF0000"/>
<path d="M106.683 162.72C106.393 162.72 106.248 162.575 106.248 162.285L106.335 152.799L127.656 112.073H107.466C107.234 112.073 107.118 111.957 107.118 111.725V102.587C107.118 102.297 107.234 102.152 107.466 102.152H138.968C139.259 102.152 139.404 102.297 139.404 102.587V111.986L118.17 152.538H139.143C139.375 152.538 139.491 152.683 139.491 152.973L139.578 162.285C139.578 162.575 139.433 162.72 139.143 162.72H106.683Z" fill="#FF0000"/>
<path d="M69.4502 159.093C68.9861 159.093 68.754 158.89 68.754 158.484L68.667 99.2221C68.667 98.7579 68.8991 98.5259 69.3632 98.5259H77.1952L91.902 132.813L91.4669 99.2221C91.4669 98.7579 91.7279 98.5259 92.2501 98.5259H100.865C101.213 98.5259 101.387 98.7579 101.387 99.2221L101.474 158.571C101.474 158.919 101.329 159.093 101.039 159.093H93.3814L78.3265 127.069L78.9356 158.397C78.9356 158.861 78.6746 159.093 78.1524 159.093H69.4502Z" fill="#FF0000"/>
<path d="M29.1528 155.033L39.9436 95.2485C40.0016 95.0164 40.1467 94.9004 40.3787 94.9004H52.997C53.229 94.9004 53.3741 95.0164 53.4321 95.2485L63.7878 155.033C63.8458 155.323 63.7297 155.468 63.4397 155.468H53.7802C53.5481 155.468 53.4031 155.323 53.3451 155.033L52.3878 148.68H40.5528L39.5955 155.033C39.5375 155.323 39.3925 155.468 39.1604 155.468H29.5009C29.2689 155.468 29.1528 155.323 29.1528 155.033ZM42.2932 139.369H50.6474L47.0795 114.916L46.5573 111.696L46.2092 114.916L42.2932 139.369Z" fill="#FF0000"/>
<path d="M0.435112 148.216C0.145037 148.216 0 148.071 0 147.781L0.174045 87.9967C0.174045 87.7646 0.290075 87.6486 0.522135 87.6486H28.3693C28.6594 87.6486 28.8044 87.7646 28.8044 87.9967V97.8302C28.8044 98.0622 28.6884 98.1783 28.4563 98.1783H10.6167V111.667H28.4563C28.6884 111.667 28.8044 111.812 28.8044 112.102L28.8914 121.935C28.8914 122.167 28.7464 122.283 28.4563 122.283H10.6167V147.781C10.6167 148.071 10.4717 148.216 10.1816 148.216H0.435112Z" fill="#FF0000"/>
</svg>
